<?xml version="1.0" encoding="UTF-8"?>
<svg width="1200pt" height="1200pt" version="1.1" viewBox="0 0 1200 1200" xmlns="http://www.w3.org/2000/svg">
 <g fill="#ff001b">
  <path d="m684.76 1070.6c0 62.453-31.227 102.6-71.375 120.45-26.766 13.383-66.914 13.383-98.141 0-35.688-17.844-66.914-57.992-66.914-120.45 0-62.453 31.227-98.141 66.914-115.98 31.227-13.383 71.375-13.383 98.141 0 40.148 17.844 71.375 57.992 71.375 115.98zm-80.297 93.68c31.227-13.383 53.531-44.609 53.531-93.68 0-44.609-22.305-75.836-53.531-89.219-22.305-8.9219-53.531-8.9219-75.836 0-31.227 13.383-53.531 40.148-53.531 89.219 0 49.07 22.305 80.297 53.531 93.68 22.305 8.9219 53.531 8.9219 75.836 0z"/>
  <path d="m341.27 294.42c-71.375 49.07-80.297-151.67-49.07-187.36 111.52-115.98 495.17-196.28 606.69 84.758 71.375 182.9-13.383 325.65-147.21 450.56-53.531 49.07-115.98 102.6-120.45 182.9 0 44.609-8.9219 71.375-84.758 71.375-49.07 0-75.836 0-75.836-57.992 0-133.83 57.992-205.2 115.98-272.12 214.12-254.27 17.844-459.48-245.35-272.12zm530.86-89.219c-102.6-263.2-459.48-178.44-557.62-80.297-13.383 17.844-8.9219 115.98 0 138.29 8.9219 35.688 80.297-71.375 218.59-71.375 147.21 0 263.2 165.05 75.836 392.57-53.531 62.453-111.52 129.37-111.52 254.27 4.4609 35.688 102.6 35.688 107.06-17.844 4.4609-89.219 66.914-142.75 124.91-200.74 124.91-115.98 209.66-245.35 142.75-414.87z"/>
 </g>
</svg>
